<svg width="580" height="400" xmlns="http://www.w3.org/2000/svg">
 <!-- Created with Method Draw - http://github.com/duopixel/Method-Draw/ -->

 <g>
  <title>background</title>
  <rect fill="#fff" id="canvas_background" height="402" width="582" y="-1" x="-1"/>
  <g display="none" overflow="visible" y="0" x="0" height="100%" width="100%" id="canvasGrid">
   <rect fill="url(#gridpattern)" stroke-width="0" y="0" x="0" height="100%" width="100%"/>
  </g>
 </g>
 <g>
  <title>Layer 1</title>
  <g id="svg_50">
   <g id="svg_26">
    <g id="svg_14">
     <g id="svg_8">
      <g id="svg_5">
       <text x="387.714087" transform="matrix(0.11993779237319391,0,0,0.11993779237319391,0,0) " id="svg_4" font-family="Times New Roman" y="533.610278" font-size="500">?</text>
      </g>
      <g id="svg_7">
       <text x="937.999735" transform="matrix(0.11993779237319391,0,0,0.11993779237319391,0,0) " id="svg_6" font-family="Times New Roman" y="533.611232" font-size="500">?</text>
      </g>
     </g>
     <g id="svg_13">
      <g id="svg_10">
       <text x="1488.284619" transform="matrix(0.11993779237319391,0,0,0.11993779237319391,0,0) " id="svg_9" font-family="Times New Roman" y="533.606843" font-size="500">?</text>
      </g>
      <g id="svg_12">
       <text x="2038.570267" transform="matrix(0.11993779237319391,0,0,0.11993779237319391,0,0) " id="svg_11" font-family="Times New Roman" y="533.607797" font-size="500">?</text>
      </g>
     </g>
    </g>
    <g id="svg_25">
     <g id="svg_19">
      <g id="svg_16">
       <text x="2505.478596" transform="matrix(0.11993779237319391,0,0,0.11993779237319391,0,0) " id="svg_15" font-family="Times New Roman" y="533.610278" font-size="500">?</text>
      </g>
      <g id="svg_18">
       <text x="3055.764244" transform="matrix(0.11993779237319391,0,0,0.11993779237319391,0,0) " id="svg_17" font-family="Times New Roman" y="533.611232" font-size="500">?</text>
      </g>
     </g>
     <g id="svg_24">
      <g id="svg_21">
       <text x="3606.049128" transform="matrix(0.11993779237319391,0,0,0.11993779237319391,0,0) " id="svg_20" font-family="Times New Roman" y="533.606843" font-size="500">?</text>
      </g>
      <g id="svg_23">
       <text x="4156.334776" transform="matrix(0.11993779237319391,0,0,0.11993779237319391,0,0) " id="svg_22" font-family="Times New Roman" y="533.607797" font-size="500">?</text>
      </g>
     </g>
    </g>
   </g>
   <g id="svg_49">
    <g id="svg_37">
     <g id="svg_31">
      <g id="svg_28">
       <text x="387.714087" transform="matrix(0.11993779237319391,0,0,0.11993779237319391,0,0) " id="svg_27" font-family="Times New Roman" y="1083.895544" font-size="500">?</text>
      </g>
      <g id="svg_30">
       <text x="937.999735" transform="matrix(0.11993779237319391,0,0,0.11993779237319391,0,0) " id="svg_29" font-family="Times New Roman" y="1083.896498" font-size="500">?</text>
      </g>
     </g>
     <g id="svg_36">
      <g id="svg_33">
       <text x="1488.284619" transform="matrix(0.11993779237319391,0,0,0.11993779237319391,0,0) " id="svg_32" font-family="Times New Roman" y="1083.892109" font-size="500">?</text>
      </g>
      <g id="svg_35">
       <text x="2038.570267" transform="matrix(0.11993779237319391,0,0,0.11993779237319391,0,0) " id="svg_34" font-family="Times New Roman" y="1083.893063" font-size="500">?</text>
      </g>
     </g>
    </g>
    <g id="svg_48">
     <g id="svg_42">
      <g id="svg_39">
       <text x="2505.478596" transform="matrix(0.11993779237319391,0,0,0.11993779237319391,0,0) " id="svg_38" font-family="Times New Roman" y="1083.895544" font-size="500">?</text>
      </g>
      <g id="svg_41">
       <text x="3055.764244" transform="matrix(0.11993779237319391,0,0,0.11993779237319391,0,0) " id="svg_40" font-family="Times New Roman" y="1083.896498" font-size="500">?</text>
      </g>
     </g>
     <g id="svg_47">
      <g id="svg_44">
       <text x="3606.049128" transform="matrix(0.11993779237319391,0,0,0.11993779237319391,0,0) " id="svg_43" font-family="Times New Roman" y="1083.892109" font-size="500">?</text>
      </g>
      <g id="svg_46">
       <text x="4156.334776" transform="matrix(0.11993779237319391,0,0,0.11993779237319391,0,0) " id="svg_45" font-family="Times New Roman" y="1083.893063" font-size="500">?</text>
      </g>
     </g>
    </g>
   </g>
  </g>
  <g id="svg_97">
   <g id="svg_73">
    <g id="svg_61">
     <g id="svg_55">
      <g id="svg_52">
       <text x="387.713196" transform="matrix(0.11993779237319391,0,0,0.11993779237319391,0,0) " id="svg_51" font-family="Times New Roman" y="1600.830188" font-size="500">?</text>
      </g>
      <g id="svg_54">
       <text x="937.998844" transform="matrix(0.11993779237319391,0,0,0.11993779237319391,0,0) " id="svg_53" font-family="Times New Roman" y="1600.831142" font-size="500">?</text>
      </g>
     </g>
     <g id="svg_60">
      <g id="svg_57">
       <text x="1488.283729" transform="matrix(0.11993779237319391,0,0,0.11993779237319391,0,0) " id="svg_56" font-family="Times New Roman" y="1600.826753" font-size="500">?</text>
      </g>
      <g id="svg_59">
       <text x="2038.569377" transform="matrix(0.11993779237319391,0,0,0.11993779237319391,0,0) " id="svg_58" font-family="Times New Roman" y="1600.827707" font-size="500">?</text>
      </g>
     </g>
    </g>
    <g id="svg_72">
     <g id="svg_66">
      <g id="svg_63">
       <text x="2505.477706" transform="matrix(0.11993779237319391,0,0,0.11993779237319391,0,0) " id="svg_62" font-family="Times New Roman" y="1600.830188" font-size="500">?</text>
      </g>
      <g id="svg_65">
       <text x="3055.763353" transform="matrix(0.11993779237319391,0,0,0.11993779237319391,0,0) " id="svg_64" font-family="Times New Roman" y="1600.831142" font-size="500">?</text>
      </g>
     </g>
     <g id="svg_71">
      <g id="svg_68">
       <text x="3606.048238" transform="matrix(0.11993779237319391,0,0,0.11993779237319391,0,0) " id="svg_67" font-family="Times New Roman" y="1600.826753" font-size="500">?</text>
      </g>
      <g id="svg_70">
       <text x="4156.333886" transform="matrix(0.11993779237319391,0,0,0.11993779237319391,0,0) " id="svg_69" font-family="Times New Roman" y="1600.827707" font-size="500">?</text>
      </g>
     </g>
    </g>
   </g>
   <g id="svg_96">
    <g id="svg_84">
     <g id="svg_78">
      <g id="svg_75">
       <text x="387.713196" transform="matrix(0.11993779237319391,0,0,0.11993779237319391,0,0) " id="svg_74" font-family="Times New Roman" y="2151.115454" font-size="500">?</text>
      </g>
      <g id="svg_77">
       <text x="937.998844" transform="matrix(0.11993779237319391,0,0,0.11993779237319391,0,0) " id="svg_76" font-family="Times New Roman" y="2151.116408" font-size="500">?</text>
      </g>
     </g>
     <g id="svg_83">
      <g id="svg_80">
       <text x="1488.283729" transform="matrix(0.11993779237319391,0,0,0.11993779237319391,0,0) " id="svg_79" font-family="Times New Roman" y="2151.112019" font-size="500">?</text>
      </g>
      <g id="svg_82">
       <text x="2038.569377" transform="matrix(0.11993779237319391,0,0,0.11993779237319391,0,0) " id="svg_81" font-family="Times New Roman" y="2151.112973" font-size="500">?</text>
      </g>
     </g>
    </g>
    <g id="svg_95">
     <g id="svg_89">
      <g id="svg_86">
       <text x="2505.477706" transform="matrix(0.11993779237319391,0,0,0.11993779237319391,0,0) " id="svg_85" font-family="Times New Roman" y="2151.115454" font-size="500">?</text>
      </g>
      <g id="svg_88">
       <text x="3055.763353" transform="matrix(0.11993779237319391,0,0,0.11993779237319391,0,0) " id="svg_87" font-family="Times New Roman" y="2151.116408" font-size="500">?</text>
      </g>
     </g>
     <g id="svg_94">
      <g id="svg_91">
       <text x="3606.048238" transform="matrix(0.11993779237319391,0,0,0.11993779237319391,0,0) " id="svg_90" font-family="Times New Roman" y="2151.112019" font-size="500">?</text>
      </g>
      <g id="svg_93">
       <text x="4156.333886" transform="matrix(0.11993779237319391,0,0,0.11993779237319391,0,0) " id="svg_92" font-family="Times New Roman" y="2151.112973" font-size="500">?</text>
      </g>
     </g>
    </g>
   </g>
  </g>
  <g id="svg_145">
   <g id="svg_121">
    <g id="svg_109">
     <g id="svg_103">
      <g id="svg_100">
       <text x="387.70798" transform="matrix(0.11993779237319391,0,0,0.11993779237319391,0,0) " id="svg_99" font-family="Times New Roman" y="2659.712443" font-size="500">?</text>
      </g>
      <g id="svg_102">
       <text x="937.993628" transform="matrix(0.11993779237319391,0,0,0.11993779237319391,0,0) " id="svg_101" font-family="Times New Roman" y="2659.713397" font-size="500">?</text>
      </g>
     </g>
     <g id="svg_108">
      <g id="svg_105">
       <text x="1488.278513" transform="matrix(0.11993779237319391,0,0,0.11993779237319391,0,0) " id="svg_104" font-family="Times New Roman" y="2659.709008" font-size="500">?</text>
      </g>
      <g id="svg_107">
       <text x="2038.56416" transform="matrix(0.11993779237319391,0,0,0.11993779237319391,0,0) " id="svg_106" font-family="Times New Roman" y="2659.709962" font-size="500">?</text>
      </g>
     </g>
    </g>
    <g id="svg_120">
     <g id="svg_114">
      <g id="svg_111">
       <text x="2505.472489" transform="matrix(0.11993779237319391,0,0,0.11993779237319391,0,0) " id="svg_110" font-family="Times New Roman" y="2659.712443" font-size="500">?</text>
      </g>
      <g id="svg_113">
       <text x="3055.758137" transform="matrix(0.11993779237319391,0,0,0.11993779237319391,0,0) " id="svg_112" font-family="Times New Roman" y="2659.713397" font-size="500">?</text>
      </g>
     </g>
     <g id="svg_119">
      <g id="svg_116">
       <text x="3606.043022" transform="matrix(0.11993779237319391,0,0,0.11993779237319391,0,0) " id="svg_115" font-family="Times New Roman" y="2659.709008" font-size="500">?</text>
      </g>
      <g id="svg_118">
       <text x="4156.32867" transform="matrix(0.11993779237319391,0,0,0.11993779237319391,0,0) " id="svg_117" font-family="Times New Roman" y="2659.709962" font-size="500">?</text>
      </g>
     </g>
    </g>
   </g>
   <g id="svg_144">
    <g id="svg_132">
     <g id="svg_126">
      <g id="svg_123">
       <text x="387.70798" transform="matrix(0.11993779237319391,0,0,0.11993779237319391,0,0) " id="svg_122" font-family="Times New Roman" y="3209.997709" font-size="500">?</text>
      </g>
      <g id="svg_125">
       <text x="937.993628" transform="matrix(0.11993779237319391,0,0,0.11993779237319391,0,0) " id="svg_124" font-family="Times New Roman" y="3209.998663" font-size="500">?</text>
      </g>
     </g>
     <g id="svg_131">
      <g id="svg_128">
       <text x="1488.278513" transform="matrix(0.11993779237319391,0,0,0.11993779237319391,0,0) " id="svg_127" font-family="Times New Roman" y="3209.994274" font-size="500">?</text>
      </g>
      <g id="svg_130">
       <text x="2038.56416" transform="matrix(0.11993779237319391,0,0,0.11993779237319391,0,0) " id="svg_129" font-family="Times New Roman" y="3209.995228" font-size="500">?</text>
      </g>
     </g>
    </g>
    <g id="svg_143">
     <g id="svg_137">
      <g id="svg_134">
       <text x="2505.472489" transform="matrix(0.11993779237319391,0,0,0.11993779237319391,0,0) " id="svg_133" font-family="Times New Roman" y="3209.997709" font-size="500">?</text>
      </g>
      <g id="svg_136">
       <text x="3055.758137" transform="matrix(0.11993779237319391,0,0,0.11993779237319391,0,0) " id="svg_135" font-family="Times New Roman" y="3209.998663" font-size="500">?</text>
      </g>
     </g>
     <g id="svg_142">
      <g id="svg_139">
       <text x="3606.043022" transform="matrix(0.11993779237319391,0,0,0.11993779237319391,0,0) " id="svg_138" font-family="Times New Roman" y="3209.994274" font-size="500">?</text>
      </g>
      <g id="svg_141">
       <text x="4156.32867" transform="matrix(0.11993779237319391,0,0,0.11993779237319391,0,0) " id="svg_140" font-family="Times New Roman" y="3209.995228" font-size="500">?</text>
      </g>
     </g>
    </g>
   </g>
  </g>
 </g>
</svg>