<?xml version="1.0" encoding="utf-8"?>
<svg xmlns="http://www.w3.org/2000/svg" version="1.1" x="0px" y="0px" xml:space="preserve" width="58.317" height="58.317" viewBox="0.034 -58.356 58.317 58.317">
	<g>
		<rect x="0.034" y="-58.356" style="fill:none;" width="58.317" height="58.317"/>
		<circle style="fill:none;stroke:#000000;stroke-width:0.35;" cx="12.015" cy="-53.824" r="1.17"/>
		<path style="fill:none;stroke:#000000;stroke-width:0.35;" d="M13.222-58.347c0,0.647,0.524,1.17,1.17,1.17s1.17-0.523,1.17-1.17"/>
		<circle style="fill:none;stroke:#000000;stroke-width:0.35;" cx="14.392" cy="-38.874" r="1.17"/>
		<path style="fill:none;stroke:#000000;stroke-width:0.35;" d="M3.785-58.347c0,0.647,0.524,1.17,1.17,1.17s1.17-0.523,1.17-1.17"/>
		<circle style="fill:none;stroke:#000000;stroke-width:0.35;" cx="4.955" cy="-38.918" r="1.17"/>
		<circle style="fill:none;stroke:#000000;stroke-width:0.35;" cx="19.493" cy="-56.185" r="1.17"/>
		<circle style="fill:none;stroke:#000000;stroke-width:0.35;" cx="19.493" cy="-51.373" r="1.17"/>
		<path style="fill:none;stroke:#000000;stroke-width:0.35;" d="M0.038-50.203c0.646,0,1.17-0.523,1.17-1.17    c0-0.645-0.524-1.17-1.17-1.17"/>
		<path style="fill:none;stroke:#000000;stroke-width:0.35;" d="M0.038-55.015c0.646,0,1.17-0.523,1.17-1.17    c0-0.645-0.524-1.17-1.17-1.17"/>
		<circle style="fill:none;stroke:#000000;stroke-width:0.35;" cx="5.158" cy="-48.861" r="1.17"/>
		<circle style="fill:none;stroke:#000000;stroke-width:0.35;" cx="6.876" cy="-53.824" r="1.17"/>
		<circle style="fill:none;stroke:#000000;stroke-width:0.35;" cx="14.242" cy="-48.861" r="1.17"/>
		<circle style="fill:none;stroke:#000000;stroke-width:0.35;" cx="9.229" cy="-46.125" r="1.17"/>
		<circle style="fill:none;stroke:#000000;stroke-width:0.35;" cx="9.213" cy="-41.423" r="1.17"/>
		<circle style="fill:none;stroke:#000000;stroke-width:0.35;" cx="16.08" cy="-43.948" r="1.17"/>
		<circle style="fill:none;stroke:#000000;stroke-width:0.35;" cx="2.258" cy="-43.948" r="1.17"/>
		<circle style="fill:none;stroke:#000000;stroke-width:0.35;" cx="31.515" cy="-53.824" r="1.17"/>
		<path style="fill:none;stroke:#000000;stroke-width:0.35;" d="M32.722-58.347c0,0.647,0.524,1.17,1.17,1.17    c0.646,0,1.17-0.523,1.17-1.17"/>
		<circle style="fill:none;stroke:#000000;stroke-width:0.35;" cx="33.892" cy="-38.874" r="1.17"/>
		<path style="fill:none;stroke:#000000;stroke-width:0.35;" d="M23.285-58.344c0,0.647,0.524,1.17,1.17,1.17    c0.646,0,1.17-0.523,1.17-1.17"/>
		<circle style="fill:none;stroke:#000000;stroke-width:0.35;" cx="24.455" cy="-38.918" r="1.17"/>
		<circle style="fill:none;stroke:#000000;stroke-width:0.35;" cx="38.993" cy="-56.185" r="1.17"/>
		<circle style="fill:none;stroke:#000000;stroke-width:0.35;" cx="38.993" cy="-51.373" r="1.17"/>
		<circle style="fill:none;stroke:#000000;stroke-width:0.35;" cx="24.658" cy="-48.861" r="1.17"/>
		<circle style="fill:none;stroke:#000000;stroke-width:0.35;" cx="26.376" cy="-53.824" r="1.17"/>
		<circle style="fill:none;stroke:#000000;stroke-width:0.35;" cx="33.742" cy="-48.861" r="1.17"/>
		<circle style="fill:none;stroke:#000000;stroke-width:0.35;" cx="28.729" cy="-46.125" r="1.17"/>
		<circle style="fill:none;stroke:#000000;stroke-width:0.35;" cx="28.713" cy="-41.423" r="1.17"/>
		<circle style="fill:none;stroke:#000000;stroke-width:0.35;" cx="35.581" cy="-43.948" r="1.17"/>
		<circle style="fill:none;stroke:#000000;stroke-width:0.35;" cx="21.758" cy="-43.948" r="1.17"/>
		<circle style="fill:none;stroke:#000000;stroke-width:0.35;" cx="51.015" cy="-53.824" r="1.17"/>
		<path style="fill:none;stroke:#000000;stroke-width:0.35;" d="M52.222-58.347c0,0.647,0.524,1.17,1.17,1.17    c0.646,0,1.17-0.523,1.17-1.17"/>
		<circle style="fill:none;stroke:#000000;stroke-width:0.35;" cx="53.392" cy="-38.874" r="1.17"/>
		<path style="fill:none;stroke:#000000;stroke-width:0.35;" d="M42.785-58.347c0,0.647,0.524,1.17,1.17,1.17    c0.646,0,1.17-0.523,1.17-1.17"/>
		<circle style="fill:none;stroke:#000000;stroke-width:0.35;" cx="43.955" cy="-38.918" r="1.17"/>
		<path style="fill:none;stroke:#000000;stroke-width:0.35;" d="M58.368-57.355c-0.646,0-1.17,0.525-1.17,1.17    c0,0.647,0.524,1.17,1.17,1.17"/>
		<path style="fill:none;stroke:#000000;stroke-width:0.35;" d="M58.351-52.543c-0.646,0-1.17,0.525-1.17,1.17    c0,0.647,0.524,1.17,1.17,1.17"/>
		<circle style="fill:none;stroke:#000000;stroke-width:0.35;" cx="44.158" cy="-48.861" r="1.17"/>
		<circle style="fill:none;stroke:#000000;stroke-width:0.35;" cx="45.876" cy="-53.824" r="1.17"/>
		<circle style="fill:none;stroke:#000000;stroke-width:0.35;" cx="53.242" cy="-48.861" r="1.17"/>
		<circle style="fill:none;stroke:#000000;stroke-width:0.35;" cx="48.229" cy="-46.125" r="1.17"/>
		<circle style="fill:none;stroke:#000000;stroke-width:0.35;" cx="48.213" cy="-41.423" r="1.17"/>
		<circle style="fill:none;stroke:#000000;stroke-width:0.35;" cx="55.081" cy="-43.948" r="1.17"/>
		<circle style="fill:none;stroke:#000000;stroke-width:0.35;" cx="41.258" cy="-43.948" r="1.17"/>
		<circle style="fill:none;stroke:#000000;stroke-width:0.35;" cx="12.015" cy="-34.387" r="1.17"/>
		<circle style="fill:none;stroke:#000000;stroke-width:0.35;" cx="14.392" cy="-38.874" r="1.17"/>
		<circle style="fill:none;stroke:#000000;stroke-width:0.35;" cx="14.392" cy="-19.437" r="1.17"/>
		<circle style="fill:none;stroke:#000000;stroke-width:0.35;" cx="4.955" cy="-19.48" r="1.17"/>
		<circle style="fill:none;stroke:#000000;stroke-width:0.35;" cx="19.493" cy="-36.748" r="1.17"/>
		<circle style="fill:none;stroke:#000000;stroke-width:0.35;" cx="19.493" cy="-31.935" r="1.17"/>
		<path style="fill:none;stroke:#000000;stroke-width:0.35;" d="M0.035-30.765c0.646,0,1.17-0.523,1.17-1.17    c0-0.645-0.524-1.17-1.17-1.17"/>
		<path style="fill:none;stroke:#000000;stroke-width:0.35;" d="M0.043-35.578c0.646,0,1.17-0.523,1.17-1.17    c0-0.645-0.524-1.17-1.17-1.17"/>
		<circle style="fill:none;stroke:#000000;stroke-width:0.35;" cx="5.158" cy="-29.424" r="1.17"/>
		<circle style="fill:none;stroke:#000000;stroke-width:0.35;" cx="6.876" cy="-34.387" r="1.17"/>
		<circle style="fill:none;stroke:#000000;stroke-width:0.35;" cx="14.242" cy="-29.424" r="1.17"/>
		<circle style="fill:none;stroke:#000000;stroke-width:0.35;" cx="9.229" cy="-26.688" r="1.17"/>
		<circle style="fill:none;stroke:#000000;stroke-width:0.35;" cx="9.213" cy="-21.985" r="1.17"/>
		<circle style="fill:none;stroke:#000000;stroke-width:0.35;" cx="16.08" cy="-24.511" r="1.17"/>
		<circle style="fill:none;stroke:#000000;stroke-width:0.35;" cx="2.258" cy="-24.511" r="1.17"/>
		<circle style="fill:none;stroke:#000000;stroke-width:0.35;" cx="31.515" cy="-34.387" r="1.17"/>
		<circle style="fill:none;stroke:#000000;stroke-width:0.35;" cx="33.892" cy="-38.874" r="1.17"/>
		<circle style="fill:none;stroke:#000000;stroke-width:0.35;" cx="33.892" cy="-19.437" r="1.17"/>
		<circle style="fill:none;stroke:#000000;stroke-width:0.35;" cx="24.455" cy="-19.48" r="1.17"/>
		<circle style="fill:none;stroke:#000000;stroke-width:0.35;" cx="38.993" cy="-36.748" r="1.17"/>
		<circle style="fill:none;stroke:#000000;stroke-width:0.35;" cx="38.993" cy="-31.935" r="1.17"/>
		<circle style="fill:none;stroke:#000000;stroke-width:0.35;" cx="24.658" cy="-29.424" r="1.17"/>
		<circle style="fill:none;stroke:#000000;stroke-width:0.35;" cx="26.376" cy="-34.387" r="1.17"/>
		<circle style="fill:none;stroke:#000000;stroke-width:0.35;" cx="33.742" cy="-29.424" r="1.17"/>
		<circle style="fill:none;stroke:#000000;stroke-width:0.35;" cx="28.729" cy="-26.688" r="1.17"/>
		<circle style="fill:none;stroke:#000000;stroke-width:0.35;" cx="28.713" cy="-21.985" r="1.17"/>
		<circle style="fill:none;stroke:#000000;stroke-width:0.35;" cx="35.581" cy="-24.511" r="1.17"/>
		<circle style="fill:none;stroke:#000000;stroke-width:0.35;" cx="21.758" cy="-24.511" r="1.17"/>
		<circle style="fill:none;stroke:#000000;stroke-width:0.35;" cx="51.015" cy="-34.387" r="1.17"/>
		<circle style="fill:none;stroke:#000000;stroke-width:0.35;" cx="53.392" cy="-38.874" r="1.17"/>
		<circle style="fill:none;stroke:#000000;stroke-width:0.35;" cx="53.392" cy="-19.437" r="1.17"/>
		<path style="fill:none;stroke:#000000;stroke-width:0.35;" d="M58.351-37.918c-0.646,0-1.17,0.525-1.17,1.17    c0,0.647,0.524,1.17,1.17,1.17"/>
		<path style="fill:none;stroke:#000000;stroke-width:0.35;" d="M58.368-33.105c-0.646,0-1.17,0.525-1.17,1.17    c0,0.647,0.524,1.17,1.17,1.17"/>
		<circle style="fill:none;stroke:#000000;stroke-width:0.35;" cx="44.158" cy="-29.424" r="1.17"/>
		<circle style="fill:none;stroke:#000000;stroke-width:0.35;" cx="45.876" cy="-34.387" r="1.17"/>
		<circle style="fill:none;stroke:#000000;stroke-width:0.35;" cx="53.242" cy="-29.424" r="1.17"/>
		<circle style="fill:none;stroke:#000000;stroke-width:0.35;" cx="48.229" cy="-26.688" r="1.17"/>
		<circle style="fill:none;stroke:#000000;stroke-width:0.35;" cx="48.213" cy="-21.985" r="1.17"/>
		<circle style="fill:none;stroke:#000000;stroke-width:0.35;" cx="55.081" cy="-24.511" r="1.17"/>
		<circle style="fill:none;stroke:#000000;stroke-width:0.35;" cx="41.258" cy="-24.511" r="1.17"/>
		<circle style="fill:none;stroke:#000000;stroke-width:0.35;" cx="12.015" cy="-14.949" r="1.17"/>
		<circle style="fill:none;stroke:#000000;stroke-width:0.35;" cx="14.392" cy="-19.437" r="1.17"/>
		<path style="fill:none;stroke:#000000;stroke-width:0.35;" d="M15.562-0.035c0-0.645-0.524-1.17-1.17-1.17s-1.17,0.525-1.17,1.17"/>
		<path style="fill:none;stroke:#000000;stroke-width:0.35;" d="M6.125-0.043c0-0.645-0.524-1.17-1.17-1.17s-1.17,0.525-1.17,1.17"/>
		<circle style="fill:none;stroke:#000000;stroke-width:0.35;" cx="19.493" cy="-17.31" r="1.17"/>
		<circle style="fill:none;stroke:#000000;stroke-width:0.35;" cx="19.493" cy="-12.498" r="1.17"/>
		<path style="fill:none;stroke:#000000;stroke-width:0.35;" d="M0.035-11.328c0.646,0,1.17-0.523,1.17-1.17    c0-0.645-0.524-1.17-1.17-1.17"/>
		<path style="fill:none;stroke:#000000;stroke-width:0.35;" d="M0.034-16.14c0.646,0,1.17-0.523,1.17-1.17    c0-0.645-0.524-1.17-1.17-1.17"/>
		<circle style="fill:none;stroke:#000000;stroke-width:0.35;" cx="5.158" cy="-9.986" r="1.17"/>
		<circle style="fill:none;stroke:#000000;stroke-width:0.35;" cx="6.876" cy="-14.949" r="1.17"/>
		<circle style="fill:none;stroke:#000000;stroke-width:0.35;" cx="14.242" cy="-9.986" r="1.17"/>
		<circle style="fill:none;stroke:#000000;stroke-width:0.35;" cx="9.229" cy="-7.25" r="1.17"/>
		<circle style="fill:none;stroke:#000000;stroke-width:0.35;" cx="9.213" cy="-2.548" r="1.17"/>
		<circle style="fill:none;stroke:#000000;stroke-width:0.35;" cx="16.08" cy="-5.073" r="1.17"/>
		<circle style="fill:none;stroke:#000000;stroke-width:0.35;" cx="2.258" cy="-5.073" r="1.17"/>
		<circle style="fill:none;stroke:#000000;stroke-width:0.35;" cx="31.515" cy="-14.949" r="1.17"/>
		<circle style="fill:none;stroke:#000000;stroke-width:0.35;" cx="33.892" cy="-19.437" r="1.17"/>
		<path style="fill:none;stroke:#000000;stroke-width:0.35;" d="M35.062-0.044c0-0.645-0.524-1.17-1.17-1.17    c-0.646,0-1.17,0.525-1.17,1.17"/>
		<path style="fill:none;stroke:#000000;stroke-width:0.35;" d="M25.625-0.043c0-0.645-0.524-1.17-1.17-1.17    c-0.646,0-1.17,0.525-1.17,1.17"/>
		<circle style="fill:none;stroke:#000000;stroke-width:0.35;" cx="38.993" cy="-17.31" r="1.17"/>
		<circle style="fill:none;stroke:#000000;stroke-width:0.35;" cx="38.993" cy="-12.498" r="1.17"/>
		<circle style="fill:none;stroke:#000000;stroke-width:0.35;" cx="24.658" cy="-9.986" r="1.17"/>
		<circle style="fill:none;stroke:#000000;stroke-width:0.35;" cx="26.376" cy="-14.949" r="1.17"/>
		<circle style="fill:none;stroke:#000000;stroke-width:0.35;" cx="33.742" cy="-9.986" r="1.17"/>
		<circle style="fill:none;stroke:#000000;stroke-width:0.35;" cx="28.729" cy="-7.25" r="1.17"/>
		<circle style="fill:none;stroke:#000000;stroke-width:0.35;" cx="28.713" cy="-2.548" r="1.17"/>
		<circle style="fill:none;stroke:#000000;stroke-width:0.35;" cx="35.581" cy="-5.073" r="1.17"/>
		<circle style="fill:none;stroke:#000000;stroke-width:0.35;" cx="21.758" cy="-5.073" r="1.17"/>
		<circle style="fill:none;stroke:#000000;stroke-width:0.35;" cx="51.015" cy="-14.949" r="1.17"/>
		<circle style="fill:none;stroke:#000000;stroke-width:0.35;" cx="53.392" cy="-19.437" r="1.17"/>
		<path style="fill:none;stroke:#000000;stroke-width:0.35;" d="M54.562-0.044c0-0.645-0.524-1.17-1.17-1.17    c-0.646,0-1.17,0.525-1.17,1.17"/>
		<circle style="fill:none;stroke:#000000;stroke-width:0.35;" cx="43.955" cy="-19.437" r="1.17"/>
		<path style="fill:none;stroke:#000000;stroke-width:0.35;" d="M45.125-0.043c0-0.645-0.524-1.17-1.17-1.17    c-0.646,0-1.17,0.525-1.17,1.17"/>
		<path style="fill:none;stroke:#000000;stroke-width:0.35;" d="M58.368-18.48c-0.646,0-1.17,0.525-1.17,1.17    c0,0.647,0.524,1.17,1.17,1.17"/>
		<path style="fill:none;stroke:#000000;stroke-width:0.35;" d="M58.368-13.668c-0.646,0-1.17,0.525-1.17,1.17    c0,0.647,0.524,1.17,1.17,1.17"/>
		<circle style="fill:none;stroke:#000000;stroke-width:0.35;" cx="44.158" cy="-9.986" r="1.17"/>
		<circle style="fill:none;stroke:#000000;stroke-width:0.35;" cx="45.876" cy="-14.949" r="1.17"/>
		<circle style="fill:none;stroke:#000000;stroke-width:0.35;" cx="53.242" cy="-9.986" r="1.17"/>
		<circle style="fill:none;stroke:#000000;stroke-width:0.35;" cx="48.229" cy="-7.25" r="1.17"/>
		<circle style="fill:none;stroke:#000000;stroke-width:0.35;" cx="48.213" cy="-2.548" r="1.17"/>
		<circle style="fill:none;stroke:#000000;stroke-width:0.35;" cx="55.081" cy="-5.073" r="1.17"/>
		<circle style="fill:none;stroke:#000000;stroke-width:0.35;" cx="41.258" cy="-5.073" r="1.17"/>
	</g>
  <defs>
    <path id="a" d="M0 0h25.88v25.88H0z"/>
  </defs>
  <path fill="none" stroke="#000" stroke-width=".43" d="M5.78 22.65l-3.1 2.02M0 21.1l1.16.5M9.4 22.44l-2.16-2.36M8.3 17.43l2.83-1.4M9.2 13.7l2.05-2.6M4.48 13.6l2.24 1.95M1.9 17L.4 14.02M10.7 20.18l3.42 1.4M4.54 17.4l-.66 3.2M5.8 9.6l-3.13 1.94M1.17 8.42L0 7.94M9.4 9.26L7.26 6.9M11.1 2.85l-2.82 1.4M4.45.4L6.7 2.32M.42.86l1.5 2.98M10.67 7l3.43 1.4M4.54 4.2l-.66 3.17M18.7 22.67l-3.08 2.02M22.36 22.46L20.2 20.1M21.25 17.43l2.82-1.4M22.14 13.7l2.06-2.6M17.4 13.58l2.24 1.95M13.34 14l1.5 3M17.48 17.38l-.66 3.18M18.72 9.45l-3.07 2.04M22.37 9.27L20.2 6.9M21.23 4.24l2.82-1.4M17.4.4l2.24 1.94M13.34.8l1.5 3M17.47 4.2l-.66 3.2M23.63 20.18l2.25.92M23.63 7.02l2.25.9M9.2.52L9.6 0M22.54 0l-.4.53M11.26 23.76l-1.68 2.12M24.2 23.77l-1.68 2.1" clip-path="url(#b)"/>
	<g>
		<rect x="0" y="-53.584" style="fill:none;" width="53.584" height="53.584"/>
		<line style="fill:none;stroke:#000000;stroke-width:0.3;" x1="3.776" y1="-52.32" x2="0" y2="-52.32"/>
		<line style="fill:none;stroke:#000000;stroke-width:0.3;" x1="6.357" y1="-52.32" x2="12.726" y2="-52.32"/>
		<line style="fill:none;stroke:#000000;stroke-width:0.3;" x1="15.273" y1="-52.32" x2="21.643" y2="-52.32"/>
		<line style="fill:none;stroke:#000000;stroke-width:0.3;" x1="24.19" y1="-52.32" x2="30.559" y2="-52.32"/>
		<line style="fill:none;stroke:#000000;stroke-width:0.3;" x1="33.106" y1="-52.32" x2="39.476" y2="-52.32"/>
		<line style="fill:none;stroke:#000000;stroke-width:0.3;" x1="42.023" y1="-52.32" x2="48.393" y2="-52.32"/>
		<line style="fill:none;stroke:#000000;stroke-width:0.3;" x1="53.584" y1="-52.32" x2="50.939" y2="-52.32"/>
		<line style="fill:none;stroke:#000000;stroke-width:0.3;" x1="8.108" y1="-49.186" x2="1.739" y2="-49.186"/>
		<line style="fill:none;stroke:#000000;stroke-width:0.3;" x1="17.024" y1="-49.186" x2="10.655" y2="-49.186"/>
		<line style="fill:none;stroke:#000000;stroke-width:0.3;" x1="25.941" y1="-49.186" x2="19.572" y2="-49.186"/>
		<line style="fill:none;stroke:#000000;stroke-width:0.3;" x1="34.858" y1="-49.186" x2="28.489" y2="-49.186"/>
		<line style="fill:none;stroke:#000000;stroke-width:0.3;" x1="43.774" y1="-49.186" x2="37.405" y2="-49.186"/>
		<line style="fill:none;stroke:#000000;stroke-width:0.3;" x1="46.322" y1="-49.186" x2="52.691" y2="-49.186"/>
		<line style="fill:none;stroke:#000000;stroke-width:0.3;" x1="0" y1="-46.216" x2="2.024" y2="-46.216"/>
		<line style="fill:none;stroke:#000000;stroke-width:0.3;" x1="10.975" y1="-46.216" x2="4.606" y2="-46.216"/>
		<line style="fill:none;stroke:#000000;stroke-width:0.3;" x1="13.521" y1="-46.216" x2="19.891" y2="-46.216"/>
		<line style="fill:none;stroke:#000000;stroke-width:0.3;" x1="22.438" y1="-46.216" x2="28.808" y2="-46.216"/>
		<line style="fill:none;stroke:#000000;stroke-width:0.3;" x1="31.355" y1="-46.216" x2="37.724" y2="-46.216"/>
		<line style="fill:none;stroke:#000000;stroke-width:0.3;" x1="40.271" y1="-46.216" x2="46.641" y2="-46.216"/>
		<line style="fill:none;stroke:#000000;stroke-width:0.3;" x1="49.188" y1="-46.216" x2="53.584" y2="-46.216"/>
		<line style="fill:none;stroke:#000000;stroke-width:0.3;" x1="7.312" y1="-43.411" x2="0.943" y2="-43.411"/>
		<line style="fill:none;stroke:#000000;stroke-width:0.3;" x1="16.229" y1="-43.411" x2="9.859" y2="-43.411"/>
		<line style="fill:none;stroke:#000000;stroke-width:0.3;" x1="25.146" y1="-43.411" x2="18.776" y2="-43.411"/>
		<line style="fill:none;stroke:#000000;stroke-width:0.3;" x1="34.062" y1="-43.411" x2="27.692" y2="-43.411"/>
		<line style="fill:none;stroke:#000000;stroke-width:0.3;" x1="42.979" y1="-43.411" x2="36.609" y2="-43.411"/>
		<line style="fill:none;stroke:#000000;stroke-width:0.3;" x1="45.526" y1="-43.411" x2="51.896" y2="-43.411"/>
		<line style="fill:none;stroke:#000000;stroke-width:0.3;" x1="1.706" y1="-40.44" x2="0" y2="-40.44"/>
		<line style="fill:none;stroke:#000000;stroke-width:0.3;" x1="4.287" y1="-40.44" x2="10.655" y2="-40.44"/>
		<line style="fill:none;stroke:#000000;stroke-width:0.3;" x1="19.572" y1="-40.44" x2="13.203" y2="-40.44"/>
		<line style="fill:none;stroke:#000000;stroke-width:0.3;" x1="22.12" y1="-40.44" x2="28.489" y2="-40.44"/>
		<line style="fill:none;stroke:#000000;stroke-width:0.3;" x1="31.036" y1="-40.44" x2="37.405" y2="-40.44"/>
		<line style="fill:none;stroke:#000000;stroke-width:0.3;" x1="39.953" y1="-40.44" x2="46.322" y2="-40.44"/>
		<line style="fill:none;stroke:#000000;stroke-width:0.3;" x1="48.87" y1="-40.44" x2="53.584" y2="-40.44"/>
		<line style="fill:none;stroke:#000000;stroke-width:0.3;" x1="5.242" y1="-37.437" x2="0" y2="-37.437"/>
		<line style="fill:none;stroke:#000000;stroke-width:0.3;" x1="14.159" y1="-37.437" x2="7.79" y2="-37.437"/>
		<line style="fill:none;stroke:#000000;stroke-width:0.3;" x1="23.075" y1="-37.437" x2="16.706" y2="-37.437"/>
		<line style="fill:none;stroke:#000000;stroke-width:0.3;" x1="25.623" y1="-37.437" x2="31.992" y2="-37.437"/>
		<line style="fill:none;stroke:#000000;stroke-width:0.3;" x1="34.539" y1="-37.437" x2="40.908" y2="-37.437"/>
		<line style="fill:none;stroke:#000000;stroke-width:0.3;" x1="43.456" y1="-37.437" x2="49.825" y2="-37.437"/>
		<line style="fill:none;stroke:#000000;stroke-width:0.3;" x1="53.584" y1="-37.437" x2="52.373" y2="-37.437"/>
		<line style="fill:none;stroke:#000000;stroke-width:0.3;" x1="2.184" y1="-34.27" x2="0" y2="-34.27"/>
		<line style="fill:none;stroke:#000000;stroke-width:0.3;" x1="11.134" y1="-34.27" x2="4.765" y2="-34.27"/>
		<line style="fill:none;stroke:#000000;stroke-width:0.3;" x1="13.681" y1="-34.27" x2="20.05" y2="-34.27"/>
		<line style="fill:none;stroke:#000000;stroke-width:0.3;" x1="28.967" y1="-34.27" x2="22.598" y2="-34.27"/>
		<line style="fill:none;stroke:#000000;stroke-width:0.3;" x1="37.883" y1="-34.27" x2="31.515" y2="-34.27"/>
		<line style="fill:none;stroke:#000000;stroke-width:0.3;" x1="46.8" y1="-34.27" x2="40.431" y2="-34.27"/>
		<line style="fill:none;stroke:#000000;stroke-width:0.3;" x1="53.584" y1="-34.27" x2="49.348" y2="-34.27"/>
		<line style="fill:none;stroke:#000000;stroke-width:0.3;" x1="6.675" y1="-31.356" x2="0.306" y2="-31.356"/>
		<line style="fill:none;stroke:#000000;stroke-width:0.3;" x1="15.592" y1="-31.356" x2="9.223" y2="-31.356"/>
		<line style="fill:none;stroke:#000000;stroke-width:0.3;" x1="24.509" y1="-31.356" x2="18.14" y2="-31.356"/>
		<line style="fill:none;stroke:#000000;stroke-width:0.3;" x1="27.056" y1="-31.356" x2="33.425" y2="-31.356"/>
		<line style="fill:none;stroke:#000000;stroke-width:0.3;" x1="35.973" y1="-31.356" x2="42.342" y2="-31.356"/>
		<line style="fill:none;stroke:#000000;stroke-width:0.3;" x1="44.889" y1="-31.356" x2="51.258" y2="-31.356"/>
		<line style="fill:none;stroke:#000000;stroke-width:0.3;" x1="3.458" y1="-28.387" x2="0" y2="-28.387"/>
		<line style="fill:none;stroke:#000000;stroke-width:0.3;" x1="6.038" y1="-28.387" x2="12.407" y2="-28.387"/>
		<line style="fill:none;stroke:#000000;stroke-width:0.3;" x1="21.324" y1="-28.387" x2="14.955" y2="-28.387"/>
		<line style="fill:none;stroke:#000000;stroke-width:0.3;" x1="30.24" y1="-28.387" x2="23.871" y2="-28.387"/>
		<line style="fill:none;stroke:#000000;stroke-width:0.3;" x1="32.788" y1="-28.387" x2="39.157" y2="-28.387"/>
		<line style="fill:none;stroke:#000000;stroke-width:0.3;" x1="41.705" y1="-28.387" x2="48.073" y2="-28.387"/>
		<line style="fill:none;stroke:#000000;stroke-width:0.3;" x1="50.621" y1="-28.387" x2="53.584" y2="-28.387"/>
		<line style="fill:none;stroke:#000000;stroke-width:0.3;" x1="7.949" y1="-25.535" x2="1.58" y2="-25.535"/>
		<line style="fill:none;stroke:#000000;stroke-width:0.3;" x1="16.865" y1="-25.535" x2="10.496" y2="-25.535"/>
		<line style="fill:none;stroke:#000000;stroke-width:0.3;" x1="25.782" y1="-25.535" x2="19.413" y2="-25.535"/>
		<line style="fill:none;stroke:#000000;stroke-width:0.3;" x1="28.33" y1="-25.535" x2="34.698" y2="-25.535"/>
		<line style="fill:none;stroke:#000000;stroke-width:0.3;" x1="43.615" y1="-25.535" x2="37.246" y2="-25.535"/>
		<line style="fill:none;stroke:#000000;stroke-width:0.3;" x1="46.163" y1="-25.535" x2="52.532" y2="-25.535"/>
		<line style="fill:none;stroke:#000000;stroke-width:0.3;" x1="2.98" y1="-22.446" x2="0" y2="-22.446"/>
		<line style="fill:none;stroke:#000000;stroke-width:0.3;" x1="11.93" y1="-22.446" x2="5.561" y2="-22.446"/>
		<line style="fill:none;stroke:#000000;stroke-width:0.3;" x1="14.477" y1="-22.446" x2="20.846" y2="-22.446"/>
		<line style="fill:none;stroke:#000000;stroke-width:0.3;" x1="23.394" y1="-22.446" x2="29.763" y2="-22.446"/>
		<line style="fill:none;stroke:#000000;stroke-width:0.3;" x1="32.311" y1="-22.446" x2="38.68" y2="-22.446"/>
		<line style="fill:none;stroke:#000000;stroke-width:0.3;" x1="41.227" y1="-22.446" x2="47.596" y2="-22.446"/>
		<line style="fill:none;stroke:#000000;stroke-width:0.3;" x1="50.144" y1="-22.446" x2="53.584" y2="-22.446"/>
		<line style="fill:none;stroke:#000000;stroke-width:0.3;" x1="6.834" y1="-19.312" x2="0.465" y2="-19.312"/>
		<line style="fill:none;stroke:#000000;stroke-width:0.3;" x1="15.751" y1="-19.312" x2="9.382" y2="-19.312"/>
		<line style="fill:none;stroke:#000000;stroke-width:0.3;" x1="24.668" y1="-19.312" x2="18.299" y2="-19.312"/>
		<line style="fill:none;stroke:#000000;stroke-width:0.3;" x1="27.215" y1="-19.312" x2="33.584" y2="-19.312"/>
		<line style="fill:none;stroke:#000000;stroke-width:0.3;" x1="42.501" y1="-19.312" x2="36.132" y2="-19.312"/>
		<line style="fill:none;stroke:#000000;stroke-width:0.3;" x1="45.049" y1="-19.312" x2="51.417" y2="-19.312"/>
		<line style="fill:none;stroke:#000000;stroke-width:0.3;" x1="0" y1="-16.342" x2="2.184" y2="-16.342"/>
		<line style="fill:none;stroke:#000000;stroke-width:0.3;" x1="4.765" y1="-16.342" x2="11.134" y2="-16.342"/>
		<line style="fill:none;stroke:#000000;stroke-width:0.3;" x1="20.05" y1="-16.342" x2="13.681" y2="-16.342"/>
		<line style="fill:none;stroke:#000000;stroke-width:0.3;" x1="22.598" y1="-16.342" x2="28.967" y2="-16.342"/>
		<line style="fill:none;stroke:#000000;stroke-width:0.3;" x1="31.515" y1="-16.342" x2="37.883" y2="-16.342"/>
		<line style="fill:none;stroke:#000000;stroke-width:0.3;" x1="40.431" y1="-16.342" x2="46.8" y2="-16.342"/>
		<line style="fill:none;stroke:#000000;stroke-width:0.3;" x1="49.348" y1="-16.342" x2="53.584" y2="-16.342"/>
		<line style="fill:none;stroke:#000000;stroke-width:0.3;" x1="6.038" y1="-13.371" x2="0" y2="-13.371"/>
		<line style="fill:none;stroke:#000000;stroke-width:0.3;" x1="14.955" y1="-13.371" x2="8.586" y2="-13.371"/>
		<line style="fill:none;stroke:#000000;stroke-width:0.3;" x1="23.871" y1="-13.371" x2="17.502" y2="-13.371"/>
		<line style="fill:none;stroke:#000000;stroke-width:0.3;" x1="26.419" y1="-13.371" x2="32.788" y2="-13.371"/>
		<line style="fill:none;stroke:#000000;stroke-width:0.3;" x1="35.336" y1="-13.371" x2="41.705" y2="-13.371"/>
		<line style="fill:none;stroke:#000000;stroke-width:0.3;" x1="44.252" y1="-13.371" x2="50.621" y2="-13.371"/>
		<line style="fill:none;stroke:#000000;stroke-width:0.3;" x1="53.584" y1="-13.371" x2="53.169" y2="-13.371"/>
		<line style="fill:none;stroke:#000000;stroke-width:0.3;" x1="0" y1="-10.575" x2="3.14" y2="-10.575"/>
		<line style="fill:none;stroke:#000000;stroke-width:0.3;" x1="12.089" y1="-10.575" x2="5.72" y2="-10.575"/>
		<line style="fill:none;stroke:#000000;stroke-width:0.3;" x1="14.637" y1="-10.575" x2="21.006" y2="-10.575"/>
		<line style="fill:none;stroke:#000000;stroke-width:0.3;" x1="23.553" y1="-10.575" x2="29.922" y2="-10.575"/>
		<line style="fill:none;stroke:#000000;stroke-width:0.3;" x1="32.47" y1="-10.575" x2="38.839" y2="-10.575"/>
		<line style="fill:none;stroke:#000000;stroke-width:0.3;" x1="47.755" y1="-10.575" x2="41.386" y2="-10.575"/>
		<line style="fill:none;stroke:#000000;stroke-width:0.3;" x1="50.303" y1="-10.575" x2="53.584" y2="-10.575"/>
		<line style="fill:none;stroke:#000000;stroke-width:0.3;" x1="8.268" y1="-7.44" x2="1.898" y2="-7.44"/>
		<line style="fill:none;stroke:#000000;stroke-width:0.3;" x1="17.184" y1="-7.44" x2="10.814" y2="-7.44"/>
		<line style="fill:none;stroke:#000000;stroke-width:0.3;" x1="26.101" y1="-7.44" x2="19.732" y2="-7.44"/>
		<line style="fill:none;stroke:#000000;stroke-width:0.3;" x1="35.018" y1="-7.44" x2="28.648" y2="-7.44"/>
		<line style="fill:none;stroke:#000000;stroke-width:0.3;" x1="37.564" y1="-7.44" x2="43.934" y2="-7.44"/>
		<line style="fill:none;stroke:#000000;stroke-width:0.3;" x1="46.481" y1="-7.44" x2="52.851" y2="-7.44"/>
		<line style="fill:none;stroke:#000000;stroke-width:0.3;" x1="4.732" y1="-4.471" x2="0" y2="-4.471"/>
		<line style="fill:none;stroke:#000000;stroke-width:0.3;" x1="7.312" y1="-4.471" x2="13.681" y2="-4.471"/>
		<line style="fill:none;stroke:#000000;stroke-width:0.3;" x1="16.229" y1="-4.471" x2="22.598" y2="-4.471"/>
		<line style="fill:none;stroke:#000000;stroke-width:0.3;" x1="25.146" y1="-4.471" x2="31.515" y2="-4.471"/>
		<line style="fill:none;stroke:#000000;stroke-width:0.3;" x1="34.062" y1="-4.471" x2="40.431" y2="-4.471"/>
		<line style="fill:none;stroke:#000000;stroke-width:0.3;" x1="42.979" y1="-4.471" x2="49.348" y2="-4.471"/>
		<line style="fill:none;stroke:#000000;stroke-width:0.3;" x1="51.896" y1="-4.471" x2="53.584" y2="-4.471"/>
		<line style="fill:none;stroke:#000000;stroke-width:0.3;" x1="8.586" y1="-1.501" x2="2.217" y2="-1.501"/>
		<line style="fill:none;stroke:#000000;stroke-width:0.3;" x1="17.502" y1="-1.501" x2="11.134" y2="-1.501"/>
		<line style="fill:none;stroke:#000000;stroke-width:0.3;" x1="26.419" y1="-1.501" x2="20.05" y2="-1.501"/>
		<line style="fill:none;stroke:#000000;stroke-width:0.3;" x1="35.336" y1="-1.501" x2="28.967" y2="-1.501"/>
		<line style="fill:none;stroke:#000000;stroke-width:0.3;" x1="44.252" y1="-1.501" x2="37.883" y2="-1.501"/>
		<line style="fill:none;stroke:#000000;stroke-width:0.3;" x1="53.169" y1="-1.501" x2="46.8" y2="-1.501"/>
	</g>
</svg>

