<?xml version="1.0" encoding="UTF-8" standalone="no"?>
<svg
   version="1.1"
   x="0px"
   y="0px"
   xml:space="preserve"
   width="53.584"
   height="53.584"
   viewBox="0 -53.584 53.584 53.584"
   id="svg119"
   xmlns="http://www.w3.org/2000/svg"
   xmlns:svg="http://www.w3.org/2000/svg"><defs
   id="defs119" />
	<g
   id="g119">
		<rect
   x="0"
   y="-53.584"
   style="fill:none"
   width="53.584"
   height="53.584"
   id="rect1" />
		<line
   style="fill:none;stroke:#000000;stroke-width:0.3"
   x1="3.776"
   y1="-52.32"
   x2="0"
   y2="-52.32"
   id="line1" />
		<line
   style="fill:none;stroke:#000000;stroke-width:0.3"
   x1="6.3569999"
   y1="-52.32"
   x2="12.726"
   y2="-52.32"
   id="line2" />
		<line
   style="fill:none;stroke:#000000;stroke-width:0.3"
   x1="15.273"
   y1="-52.32"
   x2="21.643"
   y2="-52.32"
   id="line3" />
		<line
   style="fill:none;stroke:#000000;stroke-width:0.3"
   x1="24.190001"
   y1="-52.32"
   x2="30.559"
   y2="-52.32"
   id="line4" />
		<line
   style="fill:none;stroke:#000000;stroke-width:0.3"
   x1="33.105999"
   y1="-52.32"
   x2="39.476002"
   y2="-52.32"
   id="line5" />
		<line
   style="fill:none;stroke:#000000;stroke-width:0.3"
   x1="42.022999"
   y1="-52.32"
   x2="48.393002"
   y2="-52.32"
   id="line6" />
		<line
   style="fill:none;stroke:#000000;stroke-width:0.3"
   x1="53.584"
   y1="-52.32"
   x2="50.938999"
   y2="-52.32"
   id="line7" />
		<line
   style="fill:none;stroke:#000000;stroke-width:0.3"
   x1="8.1079998"
   y1="-49.186001"
   x2="1.739"
   y2="-49.186001"
   id="line8" />
		<line
   style="fill:none;stroke:#000000;stroke-width:0.3"
   x1="17.024"
   y1="-49.186001"
   x2="10.655"
   y2="-49.186001"
   id="line9" />
		<line
   style="fill:none;stroke:#000000;stroke-width:0.3"
   x1="25.941"
   y1="-49.186001"
   x2="19.572001"
   y2="-49.186001"
   id="line10" />
		<line
   style="fill:none;stroke:#000000;stroke-width:0.3"
   x1="34.858002"
   y1="-49.186001"
   x2="28.489"
   y2="-49.186001"
   id="line11" />
		<line
   style="fill:none;stroke:#000000;stroke-width:0.3"
   x1="43.773998"
   y1="-49.186001"
   x2="37.404999"
   y2="-49.186001"
   id="line12" />
		<line
   style="fill:none;stroke:#000000;stroke-width:0.3"
   x1="46.321999"
   y1="-49.186001"
   x2="52.691002"
   y2="-49.186001"
   id="line13" />
		<line
   style="fill:none;stroke:#000000;stroke-width:0.3"
   x1="0"
   y1="-46.216"
   x2="2.0239999"
   y2="-46.216"
   id="line14" />
		<line
   style="fill:none;stroke:#000000;stroke-width:0.3"
   x1="10.975"
   y1="-46.216"
   x2="4.6059999"
   y2="-46.216"
   id="line15" />
		<line
   style="fill:none;stroke:#000000;stroke-width:0.3"
   x1="13.521"
   y1="-46.216"
   x2="19.891001"
   y2="-46.216"
   id="line16" />
		<line
   style="fill:none;stroke:#000000;stroke-width:0.3"
   x1="22.438"
   y1="-46.216"
   x2="28.808001"
   y2="-46.216"
   id="line17" />
		<line
   style="fill:none;stroke:#000000;stroke-width:0.3"
   x1="31.355"
   y1="-46.216"
   x2="37.723999"
   y2="-46.216"
   id="line18" />
		<line
   style="fill:none;stroke:#000000;stroke-width:0.3"
   x1="40.271"
   y1="-46.216"
   x2="46.640999"
   y2="-46.216"
   id="line19" />
		<line
   style="fill:none;stroke:#000000;stroke-width:0.3"
   x1="49.188"
   y1="-46.216"
   x2="53.584"
   y2="-46.216"
   id="line20" />
		<line
   style="fill:none;stroke:#000000;stroke-width:0.3"
   x1="7.3119998"
   y1="-43.410999"
   x2="0.94300002"
   y2="-43.410999"
   id="line21" />
		<line
   style="fill:none;stroke:#000000;stroke-width:0.3"
   x1="16.229"
   y1="-43.410999"
   x2="9.8590002"
   y2="-43.410999"
   id="line22" />
		<line
   style="fill:none;stroke:#000000;stroke-width:0.3"
   x1="25.146"
   y1="-43.410999"
   x2="18.775999"
   y2="-43.410999"
   id="line23" />
		<line
   style="fill:none;stroke:#000000;stroke-width:0.3"
   x1="34.062"
   y1="-43.410999"
   x2="27.691999"
   y2="-43.410999"
   id="line24" />
		<line
   style="fill:none;stroke:#000000;stroke-width:0.3"
   x1="42.979"
   y1="-43.410999"
   x2="36.609001"
   y2="-43.410999"
   id="line25" />
		<line
   style="fill:none;stroke:#000000;stroke-width:0.3"
   x1="45.526001"
   y1="-43.410999"
   x2="51.896"
   y2="-43.410999"
   id="line26" />
		<line
   style="fill:none;stroke:#000000;stroke-width:0.3"
   x1="1.706"
   y1="-40.439999"
   x2="0"
   y2="-40.439999"
   id="line27" />
		<line
   style="fill:none;stroke:#000000;stroke-width:0.3"
   x1="4.2870002"
   y1="-40.439999"
   x2="10.655"
   y2="-40.439999"
   id="line28" />
		<line
   style="fill:none;stroke:#000000;stroke-width:0.3"
   x1="19.572001"
   y1="-40.439999"
   x2="13.203"
   y2="-40.439999"
   id="line29" />
		<line
   style="fill:none;stroke:#000000;stroke-width:0.3"
   x1="22.120001"
   y1="-40.439999"
   x2="28.489"
   y2="-40.439999"
   id="line30" />
		<line
   style="fill:none;stroke:#000000;stroke-width:0.3"
   x1="31.035999"
   y1="-40.439999"
   x2="37.404999"
   y2="-40.439999"
   id="line31" />
		<line
   style="fill:none;stroke:#000000;stroke-width:0.3"
   x1="39.952999"
   y1="-40.439999"
   x2="46.321999"
   y2="-40.439999"
   id="line32" />
		<line
   style="fill:none;stroke:#000000;stroke-width:0.3"
   x1="48.869999"
   y1="-40.439999"
   x2="53.584"
   y2="-40.439999"
   id="line33" />
		<line
   style="fill:none;stroke:#000000;stroke-width:0.3"
   x1="5.2420001"
   y1="-37.437"
   x2="0"
   y2="-37.437"
   id="line34" />
		<line
   style="fill:none;stroke:#000000;stroke-width:0.3"
   x1="14.159"
   y1="-37.437"
   x2="7.79"
   y2="-37.437"
   id="line35" />
		<line
   style="fill:none;stroke:#000000;stroke-width:0.3"
   x1="23.075001"
   y1="-37.437"
   x2="16.705999"
   y2="-37.437"
   id="line36" />
		<line
   style="fill:none;stroke:#000000;stroke-width:0.3"
   x1="25.622999"
   y1="-37.437"
   x2="31.992001"
   y2="-37.437"
   id="line37" />
		<line
   style="fill:none;stroke:#000000;stroke-width:0.3"
   x1="34.539001"
   y1="-37.437"
   x2="40.908001"
   y2="-37.437"
   id="line38" />
		<line
   style="fill:none;stroke:#000000;stroke-width:0.3"
   x1="43.456001"
   y1="-37.437"
   x2="49.825001"
   y2="-37.437"
   id="line39" />
		<line
   style="fill:none;stroke:#000000;stroke-width:0.3"
   x1="53.584"
   y1="-37.437"
   x2="52.373001"
   y2="-37.437"
   id="line40" />
		<line
   style="fill:none;stroke:#000000;stroke-width:0.3"
   x1="2.184"
   y1="-34.27"
   x2="0"
   y2="-34.27"
   id="line41" />
		<line
   style="fill:none;stroke:#000000;stroke-width:0.3"
   x1="11.134"
   y1="-34.27"
   x2="4.7649999"
   y2="-34.27"
   id="line42" />
		<line
   style="fill:none;stroke:#000000;stroke-width:0.3"
   x1="13.681"
   y1="-34.27"
   x2="20.049999"
   y2="-34.27"
   id="line43" />
		<line
   style="fill:none;stroke:#000000;stroke-width:0.3"
   x1="28.966999"
   y1="-34.27"
   x2="22.598"
   y2="-34.27"
   id="line44" />
		<line
   style="fill:none;stroke:#000000;stroke-width:0.3"
   x1="37.882999"
   y1="-34.27"
   x2="31.514999"
   y2="-34.27"
   id="line45" />
		<line
   style="fill:none;stroke:#000000;stroke-width:0.3"
   x1="46.799999"
   y1="-34.27"
   x2="40.431"
   y2="-34.27"
   id="line46" />
		<line
   style="fill:none;stroke:#000000;stroke-width:0.3"
   x1="53.584"
   y1="-34.27"
   x2="49.348"
   y2="-34.27"
   id="line47" />
		<line
   style="fill:none;stroke:#000000;stroke-width:0.3"
   x1="6.6750002"
   y1="-31.356001"
   x2="0.30599999"
   y2="-31.356001"
   id="line48" />
		<line
   style="fill:none;stroke:#000000;stroke-width:0.3"
   x1="15.592"
   y1="-31.356001"
   x2="9.2229996"
   y2="-31.356001"
   id="line49" />
		<line
   style="fill:none;stroke:#000000;stroke-width:0.3"
   x1="24.509001"
   y1="-31.356001"
   x2="18.139999"
   y2="-31.356001"
   id="line50" />
		<line
   style="fill:none;stroke:#000000;stroke-width:0.3"
   x1="27.056"
   y1="-31.356001"
   x2="33.424999"
   y2="-31.356001"
   id="line51" />
		<line
   style="fill:none;stroke:#000000;stroke-width:0.3"
   x1="35.973"
   y1="-31.356001"
   x2="42.341999"
   y2="-31.356001"
   id="line52" />
		<line
   style="fill:none;stroke:#000000;stroke-width:0.3"
   x1="44.889"
   y1="-31.356001"
   x2="51.257999"
   y2="-31.356001"
   id="line53" />
		<line
   style="fill:none;stroke:#000000;stroke-width:0.3"
   x1="3.4579999"
   y1="-28.386999"
   x2="0"
   y2="-28.386999"
   id="line54" />
		<line
   style="fill:none;stroke:#000000;stroke-width:0.3"
   x1="6.0380001"
   y1="-28.386999"
   x2="12.407"
   y2="-28.386999"
   id="line55" />
		<line
   style="fill:none;stroke:#000000;stroke-width:0.3"
   x1="21.323999"
   y1="-28.386999"
   x2="14.955"
   y2="-28.386999"
   id="line56" />
		<line
   style="fill:none;stroke:#000000;stroke-width:0.3"
   x1="30.24"
   y1="-28.386999"
   x2="23.871"
   y2="-28.386999"
   id="line57" />
		<line
   style="fill:none;stroke:#000000;stroke-width:0.3"
   x1="32.787998"
   y1="-28.386999"
   x2="39.157001"
   y2="-28.386999"
   id="line58" />
		<line
   style="fill:none;stroke:#000000;stroke-width:0.3"
   x1="41.705002"
   y1="-28.386999"
   x2="48.073002"
   y2="-28.386999"
   id="line59" />
		<line
   style="fill:none;stroke:#000000;stroke-width:0.3"
   x1="50.620998"
   y1="-28.386999"
   x2="53.584"
   y2="-28.386999"
   id="line60" />
		<line
   style="fill:none;stroke:#000000;stroke-width:0.3"
   x1="7.9489999"
   y1="-25.535"
   x2="1.58"
   y2="-25.535"
   id="line61" />
		<line
   style="fill:none;stroke:#000000;stroke-width:0.3"
   x1="16.865"
   y1="-25.535"
   x2="10.496"
   y2="-25.535"
   id="line62" />
		<line
   style="fill:none;stroke:#000000;stroke-width:0.3"
   x1="25.782"
   y1="-25.535"
   x2="19.413"
   y2="-25.535"
   id="line63" />
		<line
   style="fill:none;stroke:#000000;stroke-width:0.3"
   x1="28.33"
   y1="-25.535"
   x2="34.698002"
   y2="-25.535"
   id="line64" />
		<line
   style="fill:none;stroke:#000000;stroke-width:0.3"
   x1="43.615002"
   y1="-25.535"
   x2="37.245998"
   y2="-25.535"
   id="line65" />
		<line
   style="fill:none;stroke:#000000;stroke-width:0.3"
   x1="46.162998"
   y1="-25.535"
   x2="52.532001"
   y2="-25.535"
   id="line66" />
		<line
   style="fill:none;stroke:#000000;stroke-width:0.3"
   x1="2.98"
   y1="-22.445999"
   x2="0"
   y2="-22.445999"
   id="line67" />
		<line
   style="fill:none;stroke:#000000;stroke-width:0.3"
   x1="11.93"
   y1="-22.445999"
   x2="5.5609999"
   y2="-22.445999"
   id="line68" />
		<line
   style="fill:none;stroke:#000000;stroke-width:0.3"
   x1="14.477"
   y1="-22.445999"
   x2="20.846001"
   y2="-22.445999"
   id="line69" />
		<line
   style="fill:none;stroke:#000000;stroke-width:0.3"
   x1="23.393999"
   y1="-22.445999"
   x2="29.763"
   y2="-22.445999"
   id="line70" />
		<line
   style="fill:none;stroke:#000000;stroke-width:0.3"
   x1="32.311001"
   y1="-22.445999"
   x2="38.68"
   y2="-22.445999"
   id="line71" />
		<line
   style="fill:none;stroke:#000000;stroke-width:0.3"
   x1="41.227001"
   y1="-22.445999"
   x2="47.596001"
   y2="-22.445999"
   id="line72" />
		<line
   style="fill:none;stroke:#000000;stroke-width:0.3"
   x1="50.144001"
   y1="-22.445999"
   x2="53.584"
   y2="-22.445999"
   id="line73" />
		<line
   style="fill:none;stroke:#000000;stroke-width:0.3"
   x1="6.8340001"
   y1="-19.312"
   x2="0.465"
   y2="-19.312"
   id="line74" />
		<line
   style="fill:none;stroke:#000000;stroke-width:0.3"
   x1="15.751"
   y1="-19.312"
   x2="9.382"
   y2="-19.312"
   id="line75" />
		<line
   style="fill:none;stroke:#000000;stroke-width:0.3"
   x1="24.667999"
   y1="-19.312"
   x2="18.299"
   y2="-19.312"
   id="line76" />
		<line
   style="fill:none;stroke:#000000;stroke-width:0.3"
   x1="27.215"
   y1="-19.312"
   x2="33.584"
   y2="-19.312"
   id="line77" />
		<line
   style="fill:none;stroke:#000000;stroke-width:0.3"
   x1="42.500999"
   y1="-19.312"
   x2="36.132"
   y2="-19.312"
   id="line78" />
		<line
   style="fill:none;stroke:#000000;stroke-width:0.3"
   x1="45.049"
   y1="-19.312"
   x2="51.417"
   y2="-19.312"
   id="line79" />
		<line
   style="fill:none;stroke:#000000;stroke-width:0.3"
   x1="0"
   y1="-16.341999"
   x2="2.184"
   y2="-16.341999"
   id="line80" />
		<line
   style="fill:none;stroke:#000000;stroke-width:0.3"
   x1="4.7649999"
   y1="-16.341999"
   x2="11.134"
   y2="-16.341999"
   id="line81" />
		<line
   style="fill:none;stroke:#000000;stroke-width:0.3"
   x1="20.049999"
   y1="-16.341999"
   x2="13.681"
   y2="-16.341999"
   id="line82" />
		<line
   style="fill:none;stroke:#000000;stroke-width:0.3"
   x1="22.598"
   y1="-16.341999"
   x2="28.966999"
   y2="-16.341999"
   id="line83" />
		<line
   style="fill:none;stroke:#000000;stroke-width:0.3"
   x1="31.514999"
   y1="-16.341999"
   x2="37.882999"
   y2="-16.341999"
   id="line84" />
		<line
   style="fill:none;stroke:#000000;stroke-width:0.3"
   x1="40.431"
   y1="-16.341999"
   x2="46.799999"
   y2="-16.341999"
   id="line85" />
		<line
   style="fill:none;stroke:#000000;stroke-width:0.3"
   x1="49.348"
   y1="-16.341999"
   x2="53.584"
   y2="-16.341999"
   id="line86" />
		<line
   style="fill:none;stroke:#000000;stroke-width:0.3"
   x1="6.0380001"
   y1="-13.371"
   x2="0"
   y2="-13.371"
   id="line87" />
		<line
   style="fill:none;stroke:#000000;stroke-width:0.3"
   x1="14.955"
   y1="-13.371"
   x2="8.5860004"
   y2="-13.371"
   id="line88" />
		<line
   style="fill:none;stroke:#000000;stroke-width:0.3"
   x1="23.871"
   y1="-13.371"
   x2="17.502001"
   y2="-13.371"
   id="line89" />
		<line
   style="fill:none;stroke:#000000;stroke-width:0.3"
   x1="26.419001"
   y1="-13.371"
   x2="32.787998"
   y2="-13.371"
   id="line90" />
		<line
   style="fill:none;stroke:#000000;stroke-width:0.3"
   x1="35.335999"
   y1="-13.371"
   x2="41.705002"
   y2="-13.371"
   id="line91" />
		<line
   style="fill:none;stroke:#000000;stroke-width:0.3"
   x1="44.251999"
   y1="-13.371"
   x2="50.620998"
   y2="-13.371"
   id="line92" />
		<line
   style="fill:none;stroke:#000000;stroke-width:0.3"
   x1="53.584"
   y1="-13.371"
   x2="53.168999"
   y2="-13.371"
   id="line93" />
		<line
   style="fill:none;stroke:#000000;stroke-width:0.3"
   x1="0"
   y1="-10.575"
   x2="3.1400001"
   y2="-10.575"
   id="line94" />
		<line
   style="fill:none;stroke:#000000;stroke-width:0.3"
   x1="12.089"
   y1="-10.575"
   x2="5.7199998"
   y2="-10.575"
   id="line95" />
		<line
   style="fill:none;stroke:#000000;stroke-width:0.3"
   x1="14.637"
   y1="-10.575"
   x2="21.006001"
   y2="-10.575"
   id="line96" />
		<line
   style="fill:none;stroke:#000000;stroke-width:0.3"
   x1="23.552999"
   y1="-10.575"
   x2="29.922001"
   y2="-10.575"
   id="line97" />
		<line
   style="fill:none;stroke:#000000;stroke-width:0.3"
   x1="32.470001"
   y1="-10.575"
   x2="38.839001"
   y2="-10.575"
   id="line98" />
		<line
   style="fill:none;stroke:#000000;stroke-width:0.3"
   x1="47.755001"
   y1="-10.575"
   x2="41.386002"
   y2="-10.575"
   id="line99" />
		<line
   style="fill:none;stroke:#000000;stroke-width:0.3"
   x1="50.303001"
   y1="-10.575"
   x2="53.584"
   y2="-10.575"
   id="line100" />
		<line
   style="fill:none;stroke:#000000;stroke-width:0.3"
   x1="8.2679996"
   y1="-7.4400001"
   x2="1.898"
   y2="-7.4400001"
   id="line101" />
		<line
   style="fill:none;stroke:#000000;stroke-width:0.3"
   x1="17.184"
   y1="-7.4400001"
   x2="10.814"
   y2="-7.4400001"
   id="line102" />
		<line
   style="fill:none;stroke:#000000;stroke-width:0.3"
   x1="26.101"
   y1="-7.4400001"
   x2="19.732"
   y2="-7.4400001"
   id="line103" />
		<line
   style="fill:none;stroke:#000000;stroke-width:0.3"
   x1="35.018002"
   y1="-7.4400001"
   x2="28.648001"
   y2="-7.4400001"
   id="line104" />
		<line
   style="fill:none;stroke:#000000;stroke-width:0.3"
   x1="37.563999"
   y1="-7.4400001"
   x2="43.933998"
   y2="-7.4400001"
   id="line105" />
		<line
   style="fill:none;stroke:#000000;stroke-width:0.3"
   x1="46.480999"
   y1="-7.4400001"
   x2="52.851002"
   y2="-7.4400001"
   id="line106" />
		<line
   style="fill:none;stroke:#000000;stroke-width:0.3"
   x1="4.7319999"
   y1="-4.4710002"
   x2="0"
   y2="-4.4710002"
   id="line107" />
		<line
   style="fill:none;stroke:#000000;stroke-width:0.3"
   x1="7.3119998"
   y1="-4.4710002"
   x2="13.681"
   y2="-4.4710002"
   id="line108" />
		<line
   style="fill:none;stroke:#000000;stroke-width:0.3"
   x1="16.229"
   y1="-4.4710002"
   x2="22.598"
   y2="-4.4710002"
   id="line109" />
		<line
   style="fill:none;stroke:#000000;stroke-width:0.3"
   x1="25.146"
   y1="-4.4710002"
   x2="31.514999"
   y2="-4.4710002"
   id="line110" />
		<line
   style="fill:none;stroke:#000000;stroke-width:0.3"
   x1="34.062"
   y1="-4.4710002"
   x2="40.431"
   y2="-4.4710002"
   id="line111" />
		<line
   style="fill:none;stroke:#000000;stroke-width:0.3"
   x1="42.979"
   y1="-4.4710002"
   x2="49.348"
   y2="-4.4710002"
   id="line112" />
		<line
   style="fill:none;stroke:#000000;stroke-width:0.3"
   x1="51.896"
   y1="-4.4710002"
   x2="53.584"
   y2="-4.4710002"
   id="line113" />
		<line
   style="fill:none;stroke:#000000;stroke-width:0.3"
   x1="8.5860004"
   y1="-1.501"
   x2="2.217"
   y2="-1.501"
   id="line114" />
		<line
   style="fill:none;stroke:#000000;stroke-width:0.3"
   x1="17.502001"
   y1="-1.501"
   x2="11.134"
   y2="-1.501"
   id="line115" />
		<line
   style="fill:none;stroke:#000000;stroke-width:0.3"
   x1="26.419001"
   y1="-1.501"
   x2="20.049999"
   y2="-1.501"
   id="line116" />
		<line
   style="fill:none;stroke:#000000;stroke-width:0.3"
   x1="35.335999"
   y1="-1.501"
   x2="28.966999"
   y2="-1.501"
   id="line117" />
		<line
   style="fill:none;stroke:#000000;stroke-width:0.3"
   x1="44.251999"
   y1="-1.501"
   x2="37.882999"
   y2="-1.501"
   id="line118" />
		<line
   style="fill:none;stroke:#000000;stroke-width:0.3"
   x1="53.168999"
   y1="-1.501"
   x2="46.799999"
   y2="-1.501"
   id="line119" />
	</g>
<g
   id="g43"
   transform="translate(-1,1.416)">
		<rect
   x="1"
   y="-55"
   style="fill:none"
   width="54"
   height="54"
   id="rect1-3" />
		<polygon
   style="fill:none;stroke:#000000;stroke-width:0.3"
   points="25.778,-48.858 26.833,-48.188 29.721,-52.707 28.666,-53.377 "
   id="polygon1" />
		<polygon
   style="fill:none;stroke:#000000;stroke-width:0.3"
   points="28.341,-41.108 27.76,-40.001 32.502,-37.495 33.083,-38.602 "
   id="polygon2" />
		<polygon
   style="fill:none;stroke:#000000;stroke-width:0.3"
   points="46.644,-33.869 45.409,-34.063 44.56,-28.767 45.795,-28.573 "
   id="polygon3" />
		<polygon
   style="fill:none;stroke:#000000;stroke-width:0.3"
   points="33.269,-9.285 32.034,-9.48 31.185,-4.184 32.42,-3.99 "
   id="polygon4" />
		<polygon
   style="fill:none;stroke:#000000;stroke-width:0.3"
   points="15.971,-28.073 14.721,-28.063 14.748,-22.7 15.998,-22.709 "
   id="polygon5" />
		<polygon
   style="fill:none;stroke:#000000;stroke-width:0.3"
   points="34.544,-26.609 33.471,-27.25 30.705,-22.656 31.777,-22.014 "
   id="polygon6" />
		<polygon
   style="fill:none;stroke:#000000;stroke-width:0.3"
   points="42.794,-18.171 42.52,-19.391 37.284,-18.228 37.558,-17.008 "
   id="polygon7" />
		<polygon
   style="fill:none;stroke:#000000;stroke-width:0.3"
   points="47.088,-13.925 45.874,-14.224 44.578,-9.019 45.792,-8.721 "
   id="polygon8" />
		<polygon
   style="fill:none;stroke:#000000;stroke-width:0.3"
   points="39.805,-26.557 38.971,-25.625 42.957,-22.036 43.791,-22.968 "
   id="polygon9" />
		<polygon
   style="fill:none;stroke:#000000;stroke-width:0.3"
   points="25.286,-16.312 24.071,-16.606 22.796,-11.396 24.01,-11.103 "
   id="polygon10" />
		<polygon
   style="fill:none;stroke:#000000;stroke-width:0.3"
   points="18.696,-41.563 19.625,-40.728 23.221,-44.707 22.292,-45.542 "
   id="polygon11" />
		<polygon
   style="fill:none;stroke:#000000;stroke-width:0.3"
   points="48.075,-4.358 48.659,-3.252 53.408,-5.744 52.824,-6.85 "
   id="polygon12" />
		<polygon
   style="fill:none;stroke:#000000;stroke-width:0.3"
   points="6.505,-12.753 7.1,-11.654 11.824,-14.193 11.229,-15.292 "
   id="polygon13" />
		<polygon
   style="fill:none;stroke:#000000;stroke-width:0.3"
   points="17.509,-53.353 16.637,-52.457 20.659,-48.332 21.531,-49.228 "
   id="polygon14" />
		<polygon
   style="fill:none;stroke:#000000;stroke-width:0.3"
   points="45.278,-47.108 46.333,-46.438 49.221,-50.957 48.166,-51.627 "
   id="polygon15" />
		<polygon
   style="fill:none;stroke:#000000;stroke-width:0.3"
   points="48.429,-40.348 47.572,-39.438 51.467,-35.751 52.324,-36.661 "
   id="polygon16" />
		<polygon
   style="fill:none;stroke:#000000;stroke-width:0.3"
   points="38.383,-38.439 39.194,-37.488 43.284,-40.957 42.473,-41.908 "
   id="polygon17" />
		<polygon
   style="fill:none;stroke:#000000;stroke-width:0.3"
   points="37.235,-53.12 36.257,-52.341 39.727,-47.742 40.705,-48.521 "
   id="polygon18" />
		<polygon
   style="fill:none;stroke:#000000;stroke-width:0.3"
   points="8.434,-29.785 9.273,-28.859 13.256,-32.451 12.416,-33.377 "
   id="polygon19" />
		<polygon
   style="fill:none;stroke:#000000;stroke-width:0.3"
   points="15.045,-50.011 13.795,-49.999 13.834,-44.635 15.084,-44.648 "
   id="polygon20" />
		<polygon
   style="fill:none;stroke:#000000;stroke-width:0.3"
   points="28.761,-34.788 27.545,-34.499 28.771,-29.277 29.987,-29.567 "
   id="polygon21" />
		<polygon
   style="fill:none;stroke:#000000;stroke-width:0.3"
   points="10.99,-8.371 9.774,-8.082 11,-2.861 12.216,-3.15 "
   id="polygon22" />
		<polygon
   style="fill:none;stroke:#000000;stroke-width:0.3"
   points="52.753,-48.553 51.544,-48.238 52.882,-43.044 54.091,-43.36 "
   id="polygon23" />
		<polygon
   style="fill:none;stroke:#000000;stroke-width:0.3"
   points="31.117,-46.121 31.01,-44.876 36.352,-44.403 36.459,-45.648 "
   id="polygon24" />
		<polygon
   style="fill:none;stroke:#000000;stroke-width:0.3"
   points="35.242,-32.621 35.42,-31.384 40.73,-32.135 40.552,-33.372 "
   id="polygon25" />
		<polygon
   style="fill:none;stroke:#000000;stroke-width:0.3"
   points="18.117,-36.559 17.333,-35.585 21.503,-32.211 22.286,-33.186 "
   id="polygon26" />
		<polygon
   style="fill:none;stroke:#000000;stroke-width:0.3"
   points="51.063,-15.566 50.049,-14.836 53.17,-10.475 54.185,-11.205 "
   id="polygon27" />
		<polygon
   style="fill:none;stroke:#000000;stroke-width:0.3"
   points="4.039,-36.748 2.789,-36.717 2.908,-31.355 4.157,-31.386 "
   id="polygon28" />
		<polygon
   style="fill:none;stroke:#000000;stroke-width:0.3"
   points="3.539,-20.998 2.289,-20.967 2.408,-15.605 3.657,-15.636 "
   id="polygon29" />
		<polygon
   style="fill:none;stroke:#000000;stroke-width:0.3"
   points="6.414,-24.498 5.745,-23.442 10.267,-20.56 10.936,-21.616 "
   id="polygon30" />
		<polygon
   style="fill:none;stroke:#000000;stroke-width:0.3"
   points="2.289,-8.79 1.62,-7.734 6.142,-4.851 6.811,-5.907 "
   id="polygon31" />
		<polygon
   style="fill:none;stroke:#000000;stroke-width:0.3"
   points="23.396,-6.251 22.727,-5.195 27.25,-2.312 27.919,-3.368 "
   id="polygon32" />
		<polygon
   style="fill:none;stroke:#000000;stroke-width:0.3"
   points="15.851,-16.748 14.901,-15.936 18.372,-11.848 19.322,-12.66 "
   id="polygon33" />
		<polygon
   style="fill:none;stroke:#000000;stroke-width:0.3"
   points="29.643,-18.227 28.692,-17.416 32.164,-13.327 33.114,-14.139 "
   id="polygon34" />
		<polygon
   style="fill:none;stroke:#000000;stroke-width:0.3"
   points="20.604,-23.168 20.718,-21.923 26.06,-22.394 25.947,-23.639 "
   id="polygon35" />
		<polygon
   style="fill:none;stroke:#000000;stroke-width:0.3"
   points="8.445,-42.554 7.535,-41.698 11.197,-37.779 12.108,-38.635 "
   id="polygon36" />
		<polygon
   style="fill:none;stroke:#000000;stroke-width:0.3"
   points="37.763,-5.451 37.241,-4.315 42.108,-2.061 42.63,-3.197 "
   id="polygon37" />
		<polygon
   style="fill:none;stroke:#000000;stroke-width:0.3"
   points="49.446,-20.375 50.375,-19.54 53.971,-23.519 53.042,-24.355 "
   id="polygon38" />
		<polygon
   style="fill:none;stroke:#000000;stroke-width:0.3"
   points="16.467,-2.792 17.396,-1.957 20.992,-5.936 20.062,-6.772 "
   id="polygon39" />
		<polygon
   style="fill:none;stroke:#000000;stroke-width:0.3"
   points="36.987,-9.375 37.917,-8.54 41.513,-12.519 40.583,-13.355 "
   id="polygon40" />
		<polygon
   style="fill:none;stroke:#000000;stroke-width:0.3"
   points="50.484,-32.293 49.573,-31.437 53.235,-27.519 54.146,-28.375 "
   id="polygon41" />
		<polygon
   style="fill:none;stroke:#000000;stroke-width:0.3"
   points="2.573,-44.046 3.289,-43.021 7.695,-46.08 6.979,-47.105 "
   id="polygon42" />
		<polygon
   style="fill:none;stroke:#000000;stroke-width:0.3"
   points="5.009,-53.728 4.626,-52.538 10.062,-50.63 10.445,-51.82 "
   id="polygon43" />
	</g></svg>
